<mxfile host="app.diagrams.net" modified="2021-12-19T15:27:31.245Z" agent="5.0 (Windows NT 10.0; Win64; x64) AppleWebKit/537.36 (KHTML, like Gecko) Chrome/96.0.4664.110 Safari/537.36" etag="V-8jb2rWMUP0sRcUrEPq" version="16.0.0" type="github">
  <diagram id="joiwjHzGV3Fkbfup1waQ" name="ERD">
    <mxGraphModel dx="869" dy="484" grid="1" gridSize="10" guides="1" tooltips="1" connect="1" arrows="1" fold="1" page="1" pageScale="1" pageWidth="850" pageHeight="1100" math="0" shadow="0">
      <root>
        <mxCell id="0" />
        <mxCell id="1" parent="0" />
        <mxCell id="mo1RyLKoxU8CdL2ZOADJ-21" style="edgeStyle=orthogonalEdgeStyle;rounded=0;orthogonalLoop=1;jettySize=auto;html=1;exitX=1;exitY=1;exitDx=0;exitDy=0;entryX=0.25;entryY=0;entryDx=0;entryDy=0;fontSize=13;" parent="1" source="mo1RyLKoxU8CdL2ZOADJ-1" target="mo1RyLKoxU8CdL2ZOADJ-2" edge="1">
          <mxGeometry relative="1" as="geometry" />
        </mxCell>
        <mxCell id="mo1RyLKoxU8CdL2ZOADJ-1" value="&lt;font style=&quot;font-size: 15px&quot;&gt;متن&lt;/font&gt;" style="ellipse;whiteSpace=wrap;html=1;" parent="1" vertex="1">
          <mxGeometry x="220" y="70" width="80" height="40" as="geometry" />
        </mxCell>
        <mxCell id="mo1RyLKoxU8CdL2ZOADJ-2" value="&lt;font style=&quot;font-size: 16px&quot;&gt;سوال&lt;/font&gt;" style="rounded=1;whiteSpace=wrap;html=1;" parent="1" vertex="1">
          <mxGeometry x="320" y="140" width="120" height="60" as="geometry" />
        </mxCell>
        <mxCell id="mo1RyLKoxU8CdL2ZOADJ-14" style="edgeStyle=orthogonalEdgeStyle;rounded=0;orthogonalLoop=1;jettySize=auto;html=1;exitX=0.5;exitY=1;exitDx=0;exitDy=0;entryX=0.75;entryY=0;entryDx=0;entryDy=0;fontSize=13;" parent="1" source="mo1RyLKoxU8CdL2ZOADJ-3" target="mo1RyLKoxU8CdL2ZOADJ-2" edge="1">
          <mxGeometry relative="1" as="geometry" />
        </mxCell>
        <mxCell id="mo1RyLKoxU8CdL2ZOADJ-3" value="&lt;font style=&quot;font-size: 15px&quot;&gt;عنوان&lt;/font&gt;" style="ellipse;whiteSpace=wrap;html=1;" parent="1" vertex="1">
          <mxGeometry x="380" y="39" width="80" height="41" as="geometry" />
        </mxCell>
        <mxCell id="mo1RyLKoxU8CdL2ZOADJ-15" style="edgeStyle=orthogonalEdgeStyle;rounded=0;orthogonalLoop=1;jettySize=auto;html=1;exitX=0;exitY=1;exitDx=0;exitDy=0;entryX=1;entryY=0;entryDx=0;entryDy=0;fontSize=13;" parent="1" source="mo1RyLKoxU8CdL2ZOADJ-4" target="mo1RyLKoxU8CdL2ZOADJ-2" edge="1">
          <mxGeometry relative="1" as="geometry" />
        </mxCell>
        <mxCell id="mo1RyLKoxU8CdL2ZOADJ-4" value="&lt;font style=&quot;font-size: 15px&quot;&gt;تاریخ&lt;/font&gt;" style="ellipse;whiteSpace=wrap;html=1;" parent="1" vertex="1">
          <mxGeometry x="440" y="80" width="80" height="40" as="geometry" />
        </mxCell>
        <mxCell id="mo1RyLKoxU8CdL2ZOADJ-13" style="edgeStyle=orthogonalEdgeStyle;rounded=0;orthogonalLoop=1;jettySize=auto;html=1;exitX=0.5;exitY=1;exitDx=0;exitDy=0;entryX=0.5;entryY=0;entryDx=0;entryDy=0;fontSize=13;" parent="1" source="mo1RyLKoxU8CdL2ZOADJ-5" target="mo1RyLKoxU8CdL2ZOADJ-2" edge="1">
          <mxGeometry relative="1" as="geometry">
            <Array as="points">
              <mxPoint x="330" y="90" />
              <mxPoint x="380" y="90" />
            </Array>
          </mxGeometry>
        </mxCell>
        <mxCell id="mo1RyLKoxU8CdL2ZOADJ-5" value="&lt;font style=&quot;font-size: 15px&quot;&gt;فایل&lt;/font&gt;&lt;span style=&quot;color: rgba(0 , 0 , 0 , 0) ; font-family: monospace ; font-size: 0px&quot;&gt;%3CmxGraphModel%3E%3Croot%3E%3CmxCell%20id%3D%220%22%2F%3E%3CmxCell%20id%3D%221%22%20parent%3D%220%22%2F%3E%3CmxCell%20id%3D%222%22%20value%3D%22%26lt%3Bfont%20style%3D%26quot%3Bfont-size%3A%2015px%26quot%3B%26gt%3B%D9%85%D8%AA%D9%86%26lt%3B%2Ffont%26gt%3B%22%20style%3D%22ellipse%3BwhiteSpace%3Dwrap%3Bhtml%3D1%3B%22%20vertex%3D%221%22%20parent%3D%221%22%3E%3CmxGeometry%20x%3D%22190%22%20y%3D%22100%22%20width%3D%22120%22%20height%3D%2260%22%20as%3D%22geometry%22%2F%3E%3C%2FmxCell%3E%3C%2Froot%3E%3C%2FmxGraphModel%3E&lt;/span&gt;" style="ellipse;whiteSpace=wrap;html=1;" parent="1" vertex="1">
          <mxGeometry x="290" y="39.5" width="80" height="40" as="geometry" />
        </mxCell>
        <mxCell id="mo1RyLKoxU8CdL2ZOADJ-16" style="edgeStyle=orthogonalEdgeStyle;rounded=0;orthogonalLoop=1;jettySize=auto;html=1;exitX=0.5;exitY=1;exitDx=0;exitDy=0;fontSize=13;" parent="1" source="mo1RyLKoxU8CdL2ZOADJ-6" edge="1">
          <mxGeometry relative="1" as="geometry">
            <mxPoint x="519.7619047619048" y="160.23809523809518" as="targetPoint" />
          </mxGeometry>
        </mxCell>
        <mxCell id="2i5fUij22SSwUOZy-rQ9-9" style="edgeStyle=orthogonalEdgeStyle;rounded=0;orthogonalLoop=1;jettySize=auto;html=1;exitX=0;exitY=0.5;exitDx=0;exitDy=0;entryX=1;entryY=0.25;entryDx=0;entryDy=0;fontSize=13;" edge="1" parent="1" source="mo1RyLKoxU8CdL2ZOADJ-6" target="mo1RyLKoxU8CdL2ZOADJ-2">
          <mxGeometry relative="1" as="geometry" />
        </mxCell>
        <mxCell id="mo1RyLKoxU8CdL2ZOADJ-6" value="&lt;font style=&quot;font-size: 15px&quot;&gt;تصویر&lt;/font&gt;" style="ellipse;whiteSpace=wrap;html=1;" parent="1" vertex="1">
          <mxGeometry x="480" y="120" width="80" height="40" as="geometry" />
        </mxCell>
        <mxCell id="mo1RyLKoxU8CdL2ZOADJ-18" style="edgeStyle=orthogonalEdgeStyle;rounded=0;orthogonalLoop=1;jettySize=auto;html=1;exitX=0;exitY=0.5;exitDx=0;exitDy=0;entryX=1;entryY=0.5;entryDx=0;entryDy=0;fontSize=13;" parent="1" source="mo1RyLKoxU8CdL2ZOADJ-7" target="mo1RyLKoxU8CdL2ZOADJ-2" edge="1">
          <mxGeometry relative="1" as="geometry" />
        </mxCell>
        <mxCell id="mo1RyLKoxU8CdL2ZOADJ-7" value="&lt;font style=&quot;font-size: 13px&quot;&gt;اطلاعات فرستنده&lt;/font&gt;" style="ellipse;whiteSpace=wrap;html=1;" parent="1" vertex="1">
          <mxGeometry x="480" y="170" width="80" height="40" as="geometry" />
        </mxCell>
        <mxCell id="mo1RyLKoxU8CdL2ZOADJ-20" style="edgeStyle=orthogonalEdgeStyle;rounded=0;orthogonalLoop=1;jettySize=auto;html=1;exitX=1;exitY=0.5;exitDx=0;exitDy=0;entryX=0;entryY=0.5;entryDx=0;entryDy=0;fontSize=13;" parent="1" source="mo1RyLKoxU8CdL2ZOADJ-8" target="mo1RyLKoxU8CdL2ZOADJ-2" edge="1">
          <mxGeometry relative="1" as="geometry" />
        </mxCell>
        <mxCell id="mo1RyLKoxU8CdL2ZOADJ-8" value="&lt;span style=&quot;font-size: 13px&quot;&gt;تعداد پاسخ&lt;/span&gt;&lt;span style=&quot;color: rgba(0 , 0 , 0 , 0) ; font-family: monospace ; font-size: 0px&quot;&gt;%3CmxGraphModel%3E%3Croot%3E%3CmxCell%20id%3D%220%22%2F%3E%3CmxCell%20id%3D%221%22%20parent%3D%220%22%2F%3E%3CmxCell%20id%3D%222%22%20value%3D%22%26lt%3Bfont%20style%3D%26quot%3Bfont-size%3A%2013px%26quot%3B%26gt%3B%D8%A7%D8%B7%D9%84%D8%A7%D8%B9%D8%A7%D8%AA%20%D9%81%D8%B1%D8%B3%D8%AA%D9%86%D8%AF%D9%87%26lt%3B%2Ffont%26gt%3B%22%20style%3D%22ellipse%3BwhiteSpace%3Dwrap%3Bhtml%3D1%3B%22%20vertex%3D%221%22%20parent%3D%221%22%3E%3CmxGeometry%20x%3D%22520%22%20y%3D%22200%22%20width%3D%2280%22%20height%3D%2240%22%20as%3D%22geometry%22%2F%3E%3C%2FmxCell%3E%3C%2Froot%3E%3C%2FmxGraphModel%3E&lt;/span&gt;" style="ellipse;whiteSpace=wrap;html=1;" parent="1" vertex="1">
          <mxGeometry x="190" y="120" width="80" height="40" as="geometry" />
        </mxCell>
        <mxCell id="mo1RyLKoxU8CdL2ZOADJ-19" style="edgeStyle=orthogonalEdgeStyle;rounded=0;orthogonalLoop=1;jettySize=auto;html=1;exitX=0;exitY=0.5;exitDx=0;exitDy=0;fontSize=13;entryX=0.945;entryY=1.015;entryDx=0;entryDy=0;entryPerimeter=0;" parent="1" source="mo1RyLKoxU8CdL2ZOADJ-9" target="mo1RyLKoxU8CdL2ZOADJ-2" edge="1">
          <mxGeometry relative="1" as="geometry">
            <Array as="points">
              <mxPoint x="433" y="240" />
            </Array>
          </mxGeometry>
        </mxCell>
        <mxCell id="mo1RyLKoxU8CdL2ZOADJ-9" value="&lt;span style=&quot;font-size: 13px&quot;&gt;تعداد بازدید&lt;/span&gt;" style="ellipse;whiteSpace=wrap;html=1;" parent="1" vertex="1">
          <mxGeometry x="460" y="220" width="80" height="40" as="geometry" />
        </mxCell>
        <mxCell id="2i5fUij22SSwUOZy-rQ9-1" value="&lt;span style=&quot;font-size: 16px&quot;&gt;پاسخ&lt;/span&gt;" style="rounded=1;whiteSpace=wrap;html=1;" vertex="1" parent="1">
          <mxGeometry x="320" y="370" width="120" height="60" as="geometry" />
        </mxCell>
        <mxCell id="2i5fUij22SSwUOZy-rQ9-2" value="&lt;span style=&quot;font-size: 13px&quot;&gt;تعداد&lt;/span&gt;&lt;span style=&quot;font-size: 13px&quot;&gt;&amp;nbsp;تایید&lt;/span&gt;&lt;span style=&quot;color: rgba(0 , 0 , 0 , 0) ; font-family: monospace ; font-size: 0px&quot;&gt;%3CmxGraphModel%3E%3Croot%3E%3CmxCell%20id%3D%220%22%2F%3E%3CmxCell%20id%3D%221%22%20parent%3D%220%22%2F%3E%3CmxCell%20id%3D%222%22%20value%3D%22%26lt%3Bspan%20style%3D%26quot%3Bfont-size%3A%2013px%26quot%3B%26gt%3B%D8%AA%D8%B9%D8%AF%D8%A7%D8%AF%20%D9%BE%D8%A7%D8%B3%D8%AE%26lt%3B%2Fspan%26gt%3B%26lt%3Bspan%20style%3D%26quot%3Bcolor%3A%20rgba(0%20%2C%200%20%2C%200%20%2C%200)%20%3B%20font-family%3A%20monospace%20%3B%20font-size%3A%200px%26quot%3B%26gt%3B%253CmxGraphModel%253E%253Croot%253E%253CmxCell%2520id%253D%25220%2522%252F%253E%253CmxCell%2520id%253D%25221%2522%2520parent%253D%25220%2522%252F%253E%253CmxCell%2520id%253D%25222%2522%2520value%253D%2522%2526lt%253Bfont%2520style%253D%2526quot%253Bfont-size%253A%252013px%2526quot%253B%2526gt%253B%25D8%25A7%25D8%25B7%25D9%2584%25D8%25A7%25D8%25B9%25D8%25A7%25D8%25AA%2520%25D9%2581%25D8%25B1%25D8%25B3%25D8%25AA%25D9%2586%25D8%25AF%25D9%2587%2526lt%253B%252Ffont%2526gt%253B%2522%2520style%253D%2522ellipse%253BwhiteSpace%253Dwrap%253Bhtml%253D1%253B%2522%2520vertex%253D%25221%2522%2520parent%253D%25221%2522%253E%253CmxGeometry%2520x%253D%2522520%2522%2520y%253D%2522200%2522%2520width%253D%252280%2522%2520height%253D%252240%2522%2520as%253D%2522geometry%2522%252F%253E%253C%252FmxCell%253E%253C%252Froot%253E%253C%252FmxGraphModel%253E%26lt%3B%2Fspan%26gt%3B%22%20style%3D%22ellipse%3BwhiteSpace%3Dwrap%3Bhtml%3D1%3B%22%20vertex%3D%221%22%20parent%3D%221%22%3E%3CmxGeometry%20x%3D%22190%22%20y%3D%22120%22%20width%3D%2280%22%20height%3D%2240%22%20as%3D%22geometry%22%2F%3E%3C%2FmxCell%3E%3C%2Froot%3E%3C%2FmxGraphModel%3E&lt;/span&gt;&lt;span style=&quot;color: rgba(0 , 0 , 0 , 0) ; font-family: monospace ; font-size: 0px&quot;&gt;%3CmxGraphModel%3E%3Croot%3E%3CmxCell%20id%3D%220%22%2F%3E%3CmxCell%20id%3D%221%22%20parent%3D%220%22%2F%3E%3CmxCell%20id%3D%222%22%20value%3D%22%26lt%3Bspan%20style%3D%26quot%3Bfont-size%3A%2013px%26quot%3B%26gt%3B%D8%AA%D8%B9%D8%AF%D8%A7%D8%AF%20%D9%BE%D8%A7%D8%B3%D8%AE%26lt%3B%2Fspan%26gt%3B%26lt%3Bspan%20style%3D%26quot%3Bcolor%3A%20rgba(0%20%2C%200%20%2C%200%20%2C%200)%20%3B%20font-family%3A%20monospace%20%3B%20font-size%3A%200px%26quot%3B%26gt%3B%253CmxGraphModel%253E%253Croot%253E%253CmxCell%2520id%253D%25220%2522%252F%253E%253CmxCell%2520id%253D%25221%2522%2520parent%253D%25220%2522%252F%253E%253CmxCell%2520id%253D%25222%2522%2520value%253D%2522%2526lt%253Bfont%2520style%253D%2526quot%253Bfont-size%253A%252013px%2526quot%253B%2526gt%253B%25D8%25A7%25D8%25B7%25D9%2584%25D8%25A7%25D8%25B9%25D8%25A7%25D8%25AA%2520%25D9%2581%25D8%25B1%25D8%25B3%25D8%25AA%25D9%2586%25D8%25AF%25D9%2587%2526lt%253B%252Ffont%2526gt%253B%2522%2520style%253D%2522ellipse%253BwhiteSpace%253Dwrap%253Bhtml%253D1%253B%2522%2520vertex%253D%25221%2522%2520parent%253D%25221%2522%253E%253CmxGeometry%2520x%253D%2522520%2522%2520y%253D%2522200%2522%2520width%253D%252280%2522%2520height%253D%252240%2522%2520as%253D%2522geometry%2522%252F%253E%253C%252FmxCell%253E%253C%252Froot%253E%253C%252FmxGraphModel%253E%26lt%3B%2Fspan%26gt%3B%22%20style%3D%22ellipse%3BwhiteSpace%3Dwrap%3Bhtml%3D1%3B%22%20vertex%3D%221%22%20parent%3D%221%22%3E%3CmxGeometry%20x%3D%22190%22%20y%3D%22120%22%20width%3D%2280%22%20height%3D%2240%22%20as%3D%22geometry%22%2F%3E%3C%2FmxCell%3E%3C%2Froot%3E%3C%2FmxGraphModel%3E&lt;/span&gt;" style="ellipse;whiteSpace=wrap;html=1;" vertex="1" parent="1">
          <mxGeometry x="170" y="300" width="80" height="40" as="geometry" />
        </mxCell>
        <mxCell id="2i5fUij22SSwUOZy-rQ9-3" value="&lt;span style=&quot;font-size: 13px&quot;&gt;تعداد رد&amp;nbsp;&lt;/span&gt;" style="ellipse;whiteSpace=wrap;html=1;" vertex="1" parent="1">
          <mxGeometry x="250" y="300" width="80" height="40" as="geometry" />
        </mxCell>
        <mxCell id="2i5fUij22SSwUOZy-rQ9-4" value="&lt;span style=&quot;font-size: 13px&quot;&gt;متن پاسخ&lt;/span&gt;" style="ellipse;whiteSpace=wrap;html=1;" vertex="1" parent="1">
          <mxGeometry x="340" y="300" width="80" height="40" as="geometry" />
        </mxCell>
        <mxCell id="2i5fUij22SSwUOZy-rQ9-5" value="&lt;span style=&quot;font-size: 13px&quot;&gt;تاریخ&lt;/span&gt;" style="ellipse;whiteSpace=wrap;html=1;" vertex="1" parent="1">
          <mxGeometry x="270" y="320" width="80" height="40" as="geometry" />
        </mxCell>
        <mxCell id="2i5fUij22SSwUOZy-rQ9-6" value="&lt;span style=&quot;font-size: 13px&quot;&gt;تصویر&lt;/span&gt;" style="ellipse;whiteSpace=wrap;html=1;" vertex="1" parent="1">
          <mxGeometry x="440" y="300" width="80" height="40" as="geometry" />
        </mxCell>
        <mxCell id="2i5fUij22SSwUOZy-rQ9-7" value="" style="ellipse;whiteSpace=wrap;html=1;" vertex="1" parent="1">
          <mxGeometry x="290" y="340" width="80" height="40" as="geometry" />
        </mxCell>
        <mxCell id="2i5fUij22SSwUOZy-rQ9-18" style="edgeStyle=orthogonalEdgeStyle;rounded=0;orthogonalLoop=1;jettySize=auto;html=1;exitX=0;exitY=0.5;exitDx=0;exitDy=0;fontSize=11;entryX=1;entryY=0;entryDx=0;entryDy=0;" edge="1" parent="1" source="2i5fUij22SSwUOZy-rQ9-10" target="mo1RyLKoxU8CdL2ZOADJ-7">
          <mxGeometry relative="1" as="geometry">
            <mxPoint x="560.0000000000002" y="190" as="targetPoint" />
            <Array as="points">
              <mxPoint x="580" y="155" />
              <mxPoint x="580" y="176" />
            </Array>
          </mxGeometry>
        </mxCell>
        <mxCell id="2i5fUij22SSwUOZy-rQ9-10" value="&lt;font style=&quot;font-size: 11px&quot;&gt;نام&lt;/font&gt;" style="ellipse;whiteSpace=wrap;html=1;" vertex="1" parent="1">
          <mxGeometry x="610" y="140" width="60" height="30" as="geometry" />
        </mxCell>
        <mxCell id="2i5fUij22SSwUOZy-rQ9-17" style="edgeStyle=orthogonalEdgeStyle;rounded=0;orthogonalLoop=1;jettySize=auto;html=1;exitX=0;exitY=0.5;exitDx=0;exitDy=0;entryX=1;entryY=0.5;entryDx=0;entryDy=0;fontSize=11;" edge="1" parent="1" source="2i5fUij22SSwUOZy-rQ9-11" target="mo1RyLKoxU8CdL2ZOADJ-7">
          <mxGeometry relative="1" as="geometry" />
        </mxCell>
        <mxCell id="2i5fUij22SSwUOZy-rQ9-11" value="&lt;font style=&quot;font-size: 11px&quot;&gt;نام کاربری&amp;nbsp;&lt;/font&gt;" style="ellipse;whiteSpace=wrap;html=1;" vertex="1" parent="1">
          <mxGeometry x="610" y="175" width="60" height="30" as="geometry" />
        </mxCell>
        <mxCell id="2i5fUij22SSwUOZy-rQ9-19" style="edgeStyle=orthogonalEdgeStyle;rounded=0;orthogonalLoop=1;jettySize=auto;html=1;exitX=0;exitY=0.5;exitDx=0;exitDy=0;entryX=1;entryY=1;entryDx=0;entryDy=0;fontSize=11;" edge="1" parent="1" source="2i5fUij22SSwUOZy-rQ9-13" target="mo1RyLKoxU8CdL2ZOADJ-7">
          <mxGeometry relative="1" as="geometry">
            <Array as="points">
              <mxPoint x="580" y="225" />
              <mxPoint x="580" y="204" />
            </Array>
          </mxGeometry>
        </mxCell>
        <mxCell id="2i5fUij22SSwUOZy-rQ9-13" value="&lt;font style=&quot;font-size: 11px&quot;&gt;رتبه&lt;/font&gt;" style="ellipse;whiteSpace=wrap;html=1;" vertex="1" parent="1">
          <mxGeometry x="610" y="210" width="60" height="30" as="geometry" />
        </mxCell>
      </root>
    </mxGraphModel>
  </diagram>
</mxfile>
